<svg width="254" height="64" viewBox="0 0 254 64" fill="none" xmlns="http://www.w3.org/2000/svg">
<path d="M18.1719 33.957H11.2419V27.181L31.5699 6.92999L51.8209 27.181V33.957H45.0449L31.5699 20.636L18.1719 33.957Z" fill="url(#paint0_linear_3491_3497)" stroke="black" stroke-width="0.154"/>
<path d="M31.5699 29.26L24.7939 36.036V49.665L31.4929 56.287L38.3459 49.665V36.036L31.5699 29.26Z" fill="url(#paint1_linear_3491_3497)" stroke="black" stroke-width="0.154"/>
<path d="M82.1912 48.647H74.2821L86.3332 13.7379H95.8446L107.879 48.647H99.9696L91.2252 21.7152H90.9525L82.1912 48.647ZM81.6968 34.9254H100.379V40.6867H81.6968V34.9254ZM133.119 29.9311L126.471 30.3402C126.357 29.772 126.113 29.2606 125.738 28.8061C125.363 28.3402 124.869 27.9708 124.255 27.6981C123.653 27.414 122.931 27.272 122.09 27.272C120.965 27.272 120.016 27.5106 119.244 27.9879C118.471 28.4538 118.085 29.0788 118.085 29.8629C118.085 30.4879 118.335 31.0163 118.835 31.4481C119.335 31.8799 120.193 32.2265 121.408 32.4879L126.147 33.4424C128.693 33.9652 130.59 34.8061 131.84 35.9652C133.09 37.1242 133.715 38.647 133.715 40.5333C133.715 42.2492 133.21 43.7549 132.198 45.0504C131.198 46.3458 129.823 47.3572 128.073 48.0845C126.335 48.8004 124.329 49.1583 122.056 49.1583C118.59 49.1583 115.829 48.4367 113.772 46.9936C111.727 45.539 110.528 43.5617 110.176 41.0617L117.318 40.6867C117.533 41.7436 118.056 42.5504 118.886 43.1072C119.715 43.6527 120.778 43.9254 122.073 43.9254C123.346 43.9254 124.369 43.6811 125.141 43.1924C125.926 42.6924 126.323 42.0504 126.335 41.2663C126.323 40.6072 126.045 40.0674 125.499 39.647C124.954 39.2152 124.113 38.8856 122.977 38.6583L118.443 37.7549C115.886 37.2436 113.982 36.3572 112.732 35.0958C111.494 33.8345 110.874 32.2265 110.874 30.272C110.874 28.5902 111.329 27.1413 112.238 25.9254C113.158 24.7095 114.448 23.772 116.107 23.1129C117.778 22.4538 119.732 22.1242 121.971 22.1242C125.278 22.1242 127.88 22.8231 129.778 24.2208C131.687 25.6186 132.801 27.522 133.119 29.9311ZM150.117 49.1583C147.435 49.1583 145.129 48.5902 143.197 47.4538C141.276 46.3061 139.799 44.7152 138.765 42.6811C137.742 40.647 137.231 38.3061 137.231 35.6583C137.231 32.9765 137.748 30.6242 138.782 28.6015C139.828 26.5674 141.31 24.9822 143.231 23.8458C145.151 22.6981 147.435 22.1242 150.083 22.1242C152.367 22.1242 154.367 22.539 156.083 23.3686C157.799 24.1981 159.157 25.3629 160.157 26.8629C161.157 28.3629 161.708 30.1242 161.81 32.147H154.958C154.765 30.8402 154.254 29.789 153.424 28.9936C152.606 28.1867 151.532 27.7833 150.203 27.7833C149.078 27.7833 148.095 28.0902 147.254 28.7038C146.424 29.3061 145.776 30.1867 145.31 31.3458C144.845 32.5049 144.612 33.9083 144.612 35.5561C144.612 37.2265 144.839 38.647 145.293 39.8174C145.759 40.9879 146.413 41.8799 147.254 42.4936C148.095 43.1072 149.078 43.414 150.203 43.414C151.032 43.414 151.776 43.2436 152.435 42.9027C153.106 42.5617 153.657 42.0674 154.089 41.4197C154.532 40.7606 154.822 39.9708 154.958 39.0504H161.81C161.697 41.0504 161.151 42.8117 160.174 44.3345C159.208 45.8458 157.873 47.0277 156.168 47.8799C154.464 48.7322 152.447 49.1583 150.117 49.1583ZM178.391 49.1583C175.698 49.1583 173.38 48.6129 171.437 47.522C169.505 46.4197 168.016 44.8629 166.971 42.8515C165.926 40.8288 165.403 38.4367 165.403 35.6754C165.403 32.9822 165.926 30.6186 166.971 28.5845C168.016 26.5504 169.488 24.9652 171.386 23.8288C173.295 22.6924 175.533 22.1242 178.102 22.1242C179.829 22.1242 181.437 22.4027 182.926 22.9595C184.426 23.5049 185.732 24.3288 186.846 25.4311C187.971 26.5333 188.846 27.9197 189.471 29.5902C190.096 31.2492 190.408 33.1924 190.408 35.4197V37.414H168.301V32.914H183.573C183.573 31.8686 183.346 30.9424 182.891 30.1356C182.437 29.3288 181.806 28.6981 180.999 28.2436C180.204 27.7777 179.278 27.5447 178.221 27.5447C177.119 27.5447 176.141 27.8004 175.289 28.3117C174.448 28.8117 173.789 29.4879 173.312 30.3402C172.835 31.1811 172.59 32.1186 172.579 33.1527V37.4311C172.579 38.7265 172.818 39.8458 173.295 40.789C173.783 41.7322 174.471 42.4595 175.357 42.9708C176.244 43.4822 177.295 43.7379 178.511 43.7379C179.318 43.7379 180.056 43.6242 180.727 43.397C181.397 43.1697 181.971 42.8288 182.448 42.3742C182.926 41.9197 183.289 41.3629 183.539 40.7038L190.255 41.147C189.914 42.7606 189.215 44.1697 188.158 45.3742C187.113 46.5674 185.761 47.4992 184.102 48.1697C182.454 48.8288 180.551 49.1583 178.391 49.1583ZM202.408 33.5106V48.647H195.147V22.4652H202.068V27.0845H202.374C202.954 25.5617 203.926 24.3572 205.289 23.4708C206.653 22.5731 208.306 22.1242 210.249 22.1242C212.068 22.1242 213.653 22.522 215.005 23.3174C216.357 24.1129 217.408 25.2492 218.158 26.7265C218.908 28.1924 219.283 29.9424 219.283 31.9765V48.647H212.022V33.272C212.033 31.6697 211.624 30.4197 210.795 29.522C209.965 28.6129 208.823 28.1583 207.369 28.1583C206.391 28.1583 205.528 28.3686 204.778 28.789C204.039 29.2095 203.46 29.8231 203.039 30.6299C202.63 31.4254 202.42 32.3856 202.408 33.5106ZM234.654 49.0731C232.666 49.0731 230.864 48.5617 229.251 47.539C227.649 46.5049 226.376 44.9879 225.433 42.9879C224.501 40.9765 224.035 38.5106 224.035 35.5902C224.035 32.5902 224.518 30.0958 225.484 28.1072C226.45 26.1072 227.734 24.6129 229.336 23.6242C230.95 22.6242 232.717 22.1242 234.637 22.1242C236.103 22.1242 237.325 22.3742 238.302 22.8742C239.291 23.3629 240.086 23.9765 240.688 24.7152C241.302 25.4424 241.768 26.1583 242.086 26.8629H242.308V13.7379H249.552V48.647H242.393V44.4538H242.086C241.745 45.1811 241.262 45.9027 240.637 46.6186C240.024 47.3231 239.222 47.9083 238.234 48.3742C237.256 48.8402 236.063 49.0731 234.654 49.0731ZM236.955 43.2947C238.126 43.2947 239.114 42.9765 239.921 42.3402C240.739 41.6924 241.364 40.789 241.796 39.6299C242.239 38.4708 242.461 37.1129 242.461 35.5561C242.461 33.9992 242.245 32.647 241.813 31.4992C241.381 30.3515 240.756 29.4652 239.938 28.8402C239.12 28.2152 238.126 27.9027 236.955 27.9027C235.762 27.9027 234.756 28.2265 233.938 28.8742C233.12 29.522 232.501 30.4197 232.08 31.5674C231.66 32.7152 231.45 34.0447 231.45 35.5561C231.45 37.0788 231.66 38.4254 232.08 39.5958C232.512 40.7549 233.131 41.664 233.938 42.3231C234.756 42.9708 235.762 43.2947 236.955 43.2947Z" fill="white"/>
<defs>
<linearGradient id="paint0_linear_3491_3497" x1="31.5314" y1="6.92999" x2="31.5314" y2="33.957" gradientUnits="userSpaceOnUse">
<stop stop-color="#E36ED9"/>
<stop offset="0.155" stop-color="#DC1FFF"/>
<stop offset="0.58" stop-color="#9747FF"/>
<stop offset="1" stop-color="#2F8EEA"/>
</linearGradient>
<linearGradient id="paint1_linear_3491_3497" x1="31.5699" y1="29.26" x2="31.5699" y2="56.287" gradientUnits="userSpaceOnUse">
<stop stop-color="#99DDF2"/>
<stop offset="0.315" stop-color="#238FEA"/>
<stop offset="0.585" stop-color="#4D1ED3"/>
<stop offset="0.8" stop-color="#2D0896"/>
<stop offset="1" stop-color="#00001E"/>
</linearGradient>
</defs>
</svg>
